<?xml version="1.0" encoding="utf-8"?>
<!-- Generator: Adobe Illustrator 15.0.2, SVG Export Plug-In . SVG Version: 6.00 Build 0)  -->
<!DOCTYPE svg PUBLIC "-//W3C//DTD SVG 1.1//EN" "http://www.w3.org/Graphics/SVG/1.1/DTD/svg11.dtd">
<svg version="1.1" id="Calque_1" xmlns="http://www.w3.org/2000/svg" xmlns:xlink="http://www.w3.org/1999/xlink" x="0px" y="0px"
	 width="36px" height="792px" viewBox="0 0 36 792" enable-background="new 0 0 36 792" xml:space="preserve">
<g>
	<line fill="none" stroke="#4CAF50" stroke-width="2" stroke-miterlimit="10" x1="7.694" y1="17.5" x2="7.694" y2="28.5"/>
	<circle fill="#FFC107" cx="10.194" cy="23" r="1.5"/>
	<line fill="none" stroke="#4CAF50" stroke-width="2" stroke-miterlimit="10" x1="7.694" y1="53.5" x2="7.694" y2="64.5"/>
	<circle fill="#FFC107" cx="12.797" cy="57.5" r="1.5"/>
	<line fill="none" stroke="#4CAF50" stroke-width="2" stroke-miterlimit="10" x1="7.694" y1="89.5" x2="7.694" y2="100.5"/>
	<circle fill="#FFC107" cx="15.407" cy="92" r="1.5"/>
	<line fill="none" stroke="#4CAF50" stroke-width="2" stroke-miterlimit="10" x1="7.694" y1="124.5" x2="7.694" y2="135.5"/>
	<circle fill="#FFC107" cx="18.012" cy="126.5" r="1.5"/>
	<line fill="none" stroke="#4CAF50" stroke-width="2" stroke-miterlimit="10" x1="7.694" y1="159.5" x2="7.694" y2="170.5"/>
	<circle fill="#FFC107" cx="20.602" cy="161" r="1.5"/>
	<line fill="none" stroke="#4CAF50" stroke-width="2" stroke-miterlimit="10" x1="7.694" y1="193.5" x2="7.694" y2="204.5"/>
	<circle fill="#FFC107" cx="23.211" cy="195.5" r="1.5"/>
	<line fill="none" stroke="#4CAF50" stroke-width="2" stroke-miterlimit="10" x1="7.694" y1="228.5" x2="7.694" y2="239.5"/>
	<line fill="none" stroke="#4CAF50" stroke-width="2" stroke-miterlimit="10" x1="28.305" y1="223.5" x2="28.305" y2="234.5"/>
	<line fill="none" stroke="#4CAF50" stroke-width="2" stroke-miterlimit="10" x1="28.305" y1="187.5" x2="28.305" y2="198.5"/>
	<line fill="none" stroke="#4CAF50" stroke-width="2" stroke-miterlimit="10" x1="28.305" y1="151.5" x2="28.305" y2="162.5"/>
	<line fill="none" stroke="#4CAF50" stroke-width="2" stroke-miterlimit="10" x1="28.305" y1="117" x2="28.305" y2="128"/>
	<line fill="none" stroke="#4CAF50" stroke-width="2" stroke-miterlimit="10" x1="28.305" y1="81.5" x2="28.305" y2="92.5"/>
	<line fill="none" stroke="#4CAF50" stroke-width="2" stroke-miterlimit="10" x1="28.305" y1="46.5" x2="28.305" y2="57.5"/>
	<line fill="none" stroke="#4CAF50" stroke-width="2" stroke-miterlimit="10" x1="28.305" y1="11.5" x2="28.305" y2="22.5"/>
	<circle fill="#FFC107" cx="25.805" cy="230" r="1.5"/>
	<line fill="none" stroke="#4CAF50" stroke-width="2" stroke-miterlimit="10" x1="7.694" y1="438.5" x2="7.694" y2="449.5"/>
	<circle fill="#FFC107" cx="12.797" cy="445.5" r="1.5"/>
	<line fill="none" stroke="#4CAF50" stroke-width="2" stroke-miterlimit="10" x1="7.694" y1="474.5" x2="7.694" y2="485.5"/>
	<circle fill="#FFC107" cx="15.407" cy="482" r="1.5"/>
	<line fill="none" stroke="#4CAF50" stroke-width="2" stroke-miterlimit="10" x1="7.694" y1="511.5" x2="7.694" y2="522.5"/>
	<circle fill="#FFC107" cx="18.01" cy="519.5" r="1.5"/>
	<line fill="none" stroke="#4CAF50" stroke-width="2" stroke-miterlimit="10" x1="7.694" y1="548.5" x2="7.694" y2="559.5"/>
	<circle fill="#FFC107" cx="20.602" cy="557" r="1.5"/>
	<line fill="none" stroke="#4CAF50" stroke-width="2" stroke-miterlimit="10" x1="7.694" y1="585.5" x2="7.694" y2="596.5"/>
	<circle fill="#FFC107" cx="23.211" cy="594.5" r="1.5"/>
	<line fill="none" stroke="#4CAF50" stroke-width="2" stroke-miterlimit="10" x1="7.694" y1="623.5" x2="7.694" y2="634.5"/>
	<line fill="none" stroke="#4CAF50" stroke-width="2" stroke-miterlimit="10" x1="28.305" y1="627.5" x2="28.305" y2="638.5"/>
	<line fill="none" stroke="#4CAF50" stroke-width="2" stroke-miterlimit="10" x1="28.305" y1="590.5" x2="28.305" y2="601.5"/>
	<line fill="none" stroke="#4CAF50" stroke-width="2" stroke-miterlimit="10" x1="28.305" y1="553.5" x2="28.305" y2="564.5"/>
	<line fill="none" stroke="#4CAF50" stroke-width="2" stroke-miterlimit="10" x1="28.305" y1="516.5" x2="28.305" y2="527.5"/>
	<line fill="none" stroke="#4CAF50" stroke-width="2" stroke-miterlimit="10" x1="28.305" y1="479.5" x2="28.305" y2="490.5"/>
	<line fill="none" stroke="#4CAF50" stroke-width="2" stroke-miterlimit="10" x1="28.305" y1="442.5" x2="28.305" y2="453.5"/>
	<circle fill="#FFC107" cx="25.805" cy="633" r="1.5"/>
	<line fill="none" stroke="#4CAF50" stroke-width="2" stroke-miterlimit="10" x1="7.694" y1="263.5" x2="7.694" y2="274.5"/>
	<line fill="none" stroke="#4CAF50" stroke-width="2" stroke-miterlimit="10" x1="28.305" y1="259.5" x2="28.305" y2="270.5"/>
	<line fill="none" stroke="#4CAF50" stroke-width="2" stroke-miterlimit="10" x1="7.694" y1="298.5" x2="7.694" y2="309.5"/>
	<line fill="none" stroke="#4CAF50" stroke-width="2" stroke-miterlimit="10" x1="28.305" y1="295.5" x2="28.305" y2="306.5"/>
	<line fill="none" stroke="#4CAF50" stroke-width="2" stroke-miterlimit="10" x1="7.694" y1="332.5" x2="7.694" y2="343.5"/>
	<line fill="none" stroke="#4CAF50" stroke-width="2" stroke-miterlimit="10" x1="28.305" y1="331.5" x2="28.305" y2="342.5"/>
	<line fill="none" stroke="#4CAF50" stroke-width="2" stroke-miterlimit="10" x1="7.694" y1="367.5" x2="7.694" y2="378.5"/>
	<line fill="none" stroke="#4CAF50" stroke-width="2" stroke-miterlimit="10" x1="28.305" y1="368.5" x2="28.305" y2="379.5"/>
	<line fill="none" stroke="#4CAF50" stroke-width="2" stroke-miterlimit="10" x1="7.694" y1="402.5" x2="7.694" y2="413.5"/>
	<line fill="none" stroke="#4CAF50" stroke-width="2" stroke-miterlimit="10" x1="28.305" y1="405.5" x2="28.305" y2="416.5"/>
	<circle fill="#FFC107" cx="22.68" cy="266" r="1.5"/>
	<circle fill="#FFC107" cx="19.555" cy="302" r="1.5"/>
	<circle fill="#FFC107" cx="16.43" cy="337" r="1.5"/>
	<circle fill="#FFC107" cx="13.305" cy="373" r="1.5"/>
	<circle fill="#FFC107" cx="10.18" cy="409" r="1.5"/>
	<line fill="none" stroke="#4CAF50" stroke-width="2" stroke-miterlimit="10" x1="28.305" y1="780.5" x2="28.305" y2="769.5"/>
	<line fill="none" stroke="#4CAF50" stroke-width="2" stroke-miterlimit="10" x1="7.694" y1="784.5" x2="7.694" y2="773.5"/>
	<line fill="none" stroke="#4CAF50" stroke-width="2" stroke-miterlimit="10" x1="28.305" y1="745.5" x2="28.305" y2="734.5"/>
	<line fill="none" stroke="#4CAF50" stroke-width="2" stroke-miterlimit="10" x1="7.694" y1="747.5" x2="7.694" y2="736.5"/>
	<line fill="none" stroke="#4CAF50" stroke-width="2" stroke-miterlimit="10" x1="28.305" y1="710.5" x2="28.305" y2="699.5"/>
	<line fill="none" stroke="#4CAF50" stroke-width="2" stroke-miterlimit="10" x1="7.694" y1="710.5" x2="7.694" y2="699.5"/>
	<line fill="none" stroke="#4CAF50" stroke-width="2" stroke-miterlimit="10" x1="28.305" y1="675.5" x2="28.305" y2="664.5"/>
	<line fill="none" stroke="#4CAF50" stroke-width="2" stroke-miterlimit="10" x1="7.694" y1="673.5" x2="7.694" y2="662.5"/>
	<circle fill="#FFC107" cx="13.319" cy="779" r="1.5"/>
	<circle fill="#FFC107" cx="16.444" cy="743" r="1.5"/>
	<circle fill="#FFC107" cx="19.569" cy="707" r="1.5"/>
	<circle fill="#FFC107" cx="22.694" cy="671" r="1.5"/>
	<rect y="0" fill="#607D8B" fill-opacity="0" width="36" height="792"/>
</g>
</svg>
